<?xml version="1.0" encoding="UTF-8"?>
<svg version="1.1" xmlns="http://www.w3.org/2000/svg" width="1024" height="1024">
<path d="M0 0 C337.92 0 675.84 0 1024 0 C1024 337.92 1024 675.84 1024 1024 C686.08 1024 348.16 1024 0 1024 C0 686.08 0 348.16 0 0 Z " fill="#FDFDFD" transform="translate(0,0)"/>
<path d="M0 0 C7.43304422 6.51582562 14.79275945 17.21219044 15.61450195 27.31225586 C16.02755148 43.16447135 15.3276191 56.62245187 4.4375 69.13671875 C-3.47718623 77.45046479 -13.34610207 84.58478209 -25.18383789 85.29370117 C-28.12519239 85.33291923 -31.05883914 85.31147163 -34 85.26171875 C-35.52657227 85.24818359 -35.52657227 85.24818359 -37.08398438 85.234375 C-39.57707156 85.21096573 -42.06965859 85.17817575 -44.5625 85.13671875 C-44.81306152 85.63896973 -45.06362305 86.1412207 -45.32177734 86.65869141 C-50.94486187 97.84620697 -56.91348628 108.21946373 -64.5625 118.13671875 C-65.25214844 119.03777344 -65.94179688 119.93882812 -66.65234375 120.8671875 C-71.35155877 126.86915519 -76.35477655 132.57241551 -81.5625 138.13671875 C-82.43390625 139.07386719 -83.3053125 140.01101563 -84.203125 140.9765625 C-106.51409812 164.42600917 -135.83114936 179.30514634 -165.5625 191.13671875 C-162.89013326 230.23609092 -147.12594579 266.96661178 -118.5625 294.13671875 C-117.8921875 294.79027344 -117.221875 295.44382812 -116.53125 296.1171875 C-101.30531166 310.47801571 -82.53310563 319.41663126 -62.5625 325.13671875 C-61.38171875 325.47960937 -60.2009375 325.8225 -58.984375 326.17578125 C-20.84735265 335.1640222 19.89647018 323.94879235 52.52392578 303.8515625 C62.64651989 297.48587599 71.97395293 290.55653928 80.85058594 282.54882812 C82.58225852 281.00790593 84.34937059 279.51416027 86.12109375 278.01953125 C88.55210556 275.94232237 90.75645306 273.84527223 92.8125 271.38671875 C94.66473526 269.19696507 96.52071373 267.04875899 98.4921875 264.96484375 C109.5934093 253.19201778 117.89900362 239.3765035 125.4375 225.13671875 C125.92476562 224.21995361 125.92476562 224.21995361 126.421875 223.28466797 C135.67918318 205.72328878 141.42219989 187.23922476 145.82617188 167.96679688 C146.02275391 167.10763672 146.21933594 166.24847656 146.421875 165.36328125 C146.68049316 164.21206787 146.68049316 164.21206787 146.94433594 163.03759766 C147.4375 161.13671875 147.4375 161.13671875 148.4375 159.13671875 C148.7262902 157.40035178 148.97071629 155.65648553 149.19140625 153.91015625 C149.32353516 152.87890625 149.45566406 151.84765625 149.59179688 150.78515625 C149.79385742 149.16480469 149.79385742 149.16480469 150 147.51171875 C150.13857422 146.42375 150.27714844 145.33578125 150.41992188 144.21484375 C150.76236528 141.52253007 151.10141411 138.82983221 151.4375 136.13671875 C152.0975 136.13671875 152.7575 136.13671875 153.4375 136.13671875 C153.76578107 222.59597631 153.76578107 222.59597631 149.75 241.88671875 C149.57484863 242.73177979 149.39969727 243.57684082 149.21923828 244.44750977 C139.41460853 289.67463693 110.76398427 327.20754045 72.2578125 352.140625 C59.657746 360.09573002 46.55284683 366.40163425 32.4375 371.13671875 C31.38820313 371.5028125 30.33890625 371.86890625 29.2578125 372.24609375 C-18.89795744 388.1754833 -73.59632454 383.5562096 -118.875 361.26171875 C-158.91205156 340.80696612 -192.38609118 306.47392812 -207.484375 263.6015625 C-208.9292843 258.95795905 -210.34797641 254.31197483 -211.6875 249.63671875 C-211.92968262 248.81357178 -212.17186523 247.9904248 -212.42138672 247.14233398 C-216.84781066 230.96932928 -217.99234901 214.35132756 -218.09725571 197.66079712 C-218.11780311 194.60774812 -218.15795779 191.55546797 -218.20291138 188.50268555 C-218.32745778 179.84253509 -218.42053104 171.18219784 -218.49560547 162.52148438 C-218.5432336 157.18008231 -218.61461759 151.83942062 -218.70056534 146.49850464 C-218.72816647 144.47641469 -218.74646347 142.45417493 -218.75515366 140.43191528 C-218.76749106 137.62049237 -218.8098493 134.81098777 -218.85888672 132 C-218.85489868 131.1719989 -218.85091064 130.3439978 -218.84680176 129.49090576 C-218.9532458 125.27266622 -219.19994383 123.60245725 -221.87600708 120.16479492 C-224.60726318 118.10292631 -227.1084641 117.21191019 -230.3203125 116.12109375 C-241.43207194 111.24276034 -249.15652591 100.11085791 -253.5625 89.13671875 C-258.42625511 76.18068144 -257.90918496 62.84957959 -252.5625 50.13671875 C-245.9204202 36.66114475 -235.78827924 27.2365264 -221.5625 22.13671875 C-205.86782903 17.63099144 -191.51120553 19.62230249 -177.25 27.44921875 C-165.89362425 34.44344496 -158.09729141 44.85990927 -154.21875 57.69921875 C-151.44105127 72.24906924 -153.36135804 86.66996734 -161.5625 99.13671875 C-162.614375 100.40515625 -162.614375 100.40515625 -163.6875 101.69921875 C-168.80244101 108.34864206 -169.68713337 116.55600756 -169.6953125 124.73046875 C-169.69724609 125.99882568 -169.69917969 127.26718262 -169.70117188 128.57397461 C-169.69706305 129.92822409 -169.69249715 131.28247225 -169.6875 132.63671875 C-169.68661377 133.32025421 -169.68572754 134.00378967 -169.68481445 134.70803833 C-169.66631997 146.87011483 -169.27594827 158.99535795 -168.5625 171.13671875 C-143.83680084 161.32319292 -123.40521343 149.15608262 -104.5625 130.13671875 C-103.81871094 129.40195312 -103.07492187 128.6671875 -102.30859375 127.91015625 C-87.74968156 112.78465356 -74.88319214 90.88964952 -70.5625 70.13671875 C-71.09055173 67.29458992 -72.04869973 64.94420612 -73.375 62.38671875 C-73.72820312 61.69578125 -74.08140625 61.00484375 -74.4453125 60.29296875 C-74.81398438 59.58140625 -75.18265625 58.86984375 -75.5625 58.13671875 C-76.29547786 56.72202022 -77.02477491 55.30540724 -77.75 53.88671875 C-78.23533203 52.95085937 -78.23533203 52.95085937 -78.73046875 51.99609375 C-82.62750005 43.28723508 -81.95176182 29.75769008 -78.875 20.94921875 C-78.15519864 19.32151462 -77.38751096 17.71370691 -76.5625 16.13671875 C-76.20027344 15.43675781 -75.83804688 14.73679687 -75.46484375 14.015625 C-68.75921086 2.35464306 -59.12004303 -5.68313355 -46.25 -9.80078125 C-29.60700183 -13.66176497 -13.6600963 -9.93272247 0 0 Z " fill="#F37211" transform="translate(543.5625,285.86328125)"/>
<path d="M0 0 C0.93328125 0.4125 1.8665625 0.825 2.828125 1.25 C14.35297758 6.91584931 22.84969304 16.26874525 28 28 C33.04557956 43.92961546 31.75820497 58.35499491 24.42578125 73.18359375 C18.683209 82.83486319 10.9409339 89.03903681 1 94 C0.05125 94.53625 -0.8975 95.0725 -1.875 95.625 C-4.80215468 96.91294806 -7.46401042 97.63036966 -10.5625 98.375 C-15.33760553 99.63194773 -18.01150471 100.89081898 -21 105 C-24.35218773 111.39010786 -25.07052362 117.90289649 -26 125 C-28.01046333 139.94217234 -30.6672712 154.18531846 -35.6875 168.4375 C-36.01605988 169.37953781 -36.01605988 169.37953781 -36.35125732 170.34060669 C-39.84808084 180.33445037 -43.821596 189.76800925 -49 199 C-49.88171875 200.68222656 -49.88171875 200.68222656 -50.78125 202.3984375 C-58.48732316 216.66773398 -68.37653874 229.55295157 -79.4375 241.375 C-80.0871875 242.07020752 -80.736875 242.76541504 -81.40625 243.48168945 C-85.31596949 247.54946357 -89.30840581 250.86419898 -94 254 C-92.56531252 250.8074262 -90.67977901 248.04026857 -88.67480469 245.18041992 C-60.98120723 205.3825773 -57.21864497 154.14074729 -56.10107422 107.23583984 C-56.01010408 104.3234771 -55.85172265 101.42667354 -55.66015625 98.51953125 C-55.27604257 91.5198144 -55.0084498 86.22567985 -59.6875 80.5 C-60.41710937 79.74589844 -61.14671875 78.99179687 -61.8984375 78.21484375 C-70.56799624 69.07796679 -72.51191883 55.78119645 -72.41943359 43.703125 C-71.93783649 28.91343324 -64.86092034 18.06505789 -54.37109375 8.03515625 C-39.22632788 -4.9638932 -18.17006974 -8.2124609 0 0 Z " fill="#FCA40A" transform="translate(706,310)"/>
<path d="M0 0 C7.43304422 6.51582562 14.79275945 17.21219044 15.61450195 27.31225586 C16.02755148 43.16447135 15.3276191 56.62245187 4.4375 69.13671875 C-4.25432166 78.26678352 -14.57875331 85.01732513 -27.515625 85.40234375 C-29.28124986 85.40759859 -31.04693524 85.40220616 -32.8125 85.38671875 C-33.7096875 85.39445312 -34.606875 85.4021875 -35.53125 85.41015625 C-36.39234375 85.40757812 -37.2534375 85.405 -38.140625 85.40234375 C-38.91825195 85.40008789 -39.69587891 85.39783203 -40.49707031 85.39550781 C-42.5625 85.13671875 -42.5625 85.13671875 -45.5625 83.13671875 C-47.356875 82.76546875 -47.356875 82.76546875 -49.1875 82.38671875 C-54.44065573 81.15295007 -58.28926092 78.32616531 -62.5625 75.13671875 C-63.1709375 74.729375 -63.779375 74.32203125 -64.40625 73.90234375 C-72.78560506 67.73209139 -78.14897543 56.08289301 -80.5625 46.13671875 C-80.96519466 42.99682451 -81.04045584 39.9247184 -81 36.76171875 C-80.99315186 35.93244873 -80.98630371 35.10317871 -80.97924805 34.2487793 C-80.80616857 27.61406588 -79.66339545 22.06400414 -76.5625 16.13671875 C-76.20027344 15.43675781 -75.83804687 14.73679687 -75.46484375 14.015625 C-68.75921086 2.35464306 -59.12004303 -5.68313355 -46.25 -9.80078125 C-29.60700183 -13.66176497 -13.6600963 -9.93272247 0 0 Z " fill="#F6810C" transform="translate(543.5625,285.86328125)"/>
<path d="M0 0 C4.168646 2.7096199 8.1403513 5.58669799 12.0703125 8.6328125 C16.11044525 11.49525473 20.2319749 12.71630094 25 14 C18.62480022 34.91065527 2.64861827 53.34837124 -12 69 C-12.87140625 69.93714844 -13.7428125 70.87429688 -14.640625 71.83984375 C-31.60893716 89.67400674 -52.8107544 102.66373016 -75 113 C-75.70495605 113.3304834 -76.40991211 113.6609668 -77.13623047 114.00146484 C-79.27201976 114.99471008 -81.4149302 115.97001805 -83.5625 116.9375 C-84.52663818 117.37980957 -84.52663818 117.37980957 -85.51025391 117.83105469 C-89.73833502 119.68933335 -93.45462189 120.53785731 -98 121 C-98.65576953 116.57355564 -99.15179806 112.15810365 -99.375 107.6875 C-99.42398437 106.86636719 -99.47296875 106.04523438 -99.5234375 105.19921875 C-99 103 -99 103 -96.921875 101.39453125 C-94.25485039 100.12163314 -91.57081068 98.92780149 -88.83642578 97.80688477 C-74.45462085 91.89054604 -60.74186883 84.24290685 -49 74 C-47.94680201 73.14628414 -46.89060191 72.29626358 -45.83203125 71.44921875 C-38.59952321 65.60544435 -32.58698507 59.48825946 -27 52 C-26.30132812 51.08089844 -25.60265625 50.16179687 -24.8828125 49.21484375 C-14.42027904 35.17925642 -6.81258781 19.83128481 -1.69140625 3.08984375 C-1 1 -1 1 0 0 Z " fill="#ED5A1A" transform="translate(474,355)"/>
<path d="M0 0 C0.66 0 1.32 0 2 0 C2 17.16 2 34.32 2 52 C1.67 52 1.34 52 1 52 C1 43.42 1 34.84 1 26 C0.01 26 -0.98 26 -2 26 C-2.66 26.99 -3.32 27.98 -4 29 C-2.83007154 19.30452907 -1.55220235 9.6434699 0 0 Z " fill="#FBBB4D" transform="translate(695,422)"/>
<path d="M0 0 C3.00140922 3.71045773 5.89335474 7.48963648 8.75 11.3125 C9.16121094 11.86228516 9.57242187 12.41207031 9.99609375 12.97851562 C10.99813666 14.31845673 11.99917397 15.65914974 13 17 C10 17 10 17 7.08203125 14.375 C5.98449244 13.25750594 4.89492105 12.13214357 3.8125 11 C3.25369141 10.42765625 2.69488281 9.8553125 2.11914062 9.265625 C0.73926907 7.85037212 -0.63126734 6.42602845 -2 5 C-1.34 3.35 -0.68 1.7 0 0 Z " fill="#F78711" transform="translate(401,552)"/>
<path d="M0 0 C2.31 0 4.62 0 7 0 C5.02 0.99 5.02 0.99 3 2 C2.67 16.85 2.34 31.7 2 47 C1.67 47 1.34 47 1 47 C0.67 31.49 0.34 15.98 0 0 Z " fill="#EB6334" transform="translate(324,406)"/>
<path d="M0 0 C1.11375 0.185625 1.11375 0.185625 2.25 0.375 C-0.90221101 4.78809542 -4.30463907 7.38293014 -8.75 10.375 C-4.22761194 0.57649254 -4.22761194 0.57649254 0 0 Z " fill="#FCC03E" transform="translate(620.75,553.625)"/>
</svg>
